<?xml version="1.0" standalone="no"?>
<!DOCTYPE svg PUBLIC "-//W3C//DTD SVG 20010904//EN"
 "http://www.w3.org/TR/2001/REC-SVG-20010904/DTD/svg10.dtd">
<svg version="1.0" xmlns="http://www.w3.org/2000/svg"
 width="1080.000000pt" height="1080.000000pt" viewBox="0 0 1080.000000 1080.000000"
 preserveAspectRatio="xMidYMid meet">

<g transform="translate(0.000000,1080.000000) scale(0.100000,-0.100000)"
fill="#000000" stroke="none">
<path d="M5930 6383 c-685 -232 -1087 -376 -1335 -477 -76 -31 -129 -43 -340
-76 -292 -46 -563 -93 -690 -120 l-90 -19 70 5 c330 23 630 42 633 40 1 -2
-31 -19 -73 -37 -74 -34 -103 -58 -45 -37 17 5 42 8 55 5 14 -2 25 0 25 5 0 5
4 7 9 4 5 -4 11 -2 13 2 8 23 352 119 571 161 126 25 460 67 600 77 92 6 98 8
103 30 5 21 12 24 58 25 28 1 43 3 32 6 -22 6 -566 -47 -646 -62 -19 -4 -16 0
12 15 82 44 505 226 805 346 175 69 320 128 322 130 9 8 -17 1 -89 -23z"/>
<path d="M6005 6130 c-3 -5 -1 -10 4 -10 6 0 11 5 11 10 0 6 -2 10 -4 10 -3 0
-8 -4 -11 -10z"/>
<path d="M5820 6110 c0 -5 5 -10 10 -10 6 0 10 5 10 10 0 6 -4 10 -10 10 -5 0
-10 -4 -10 -10z"/>
<path d="M5958 6110 c-7 -4 -51 -10 -97 -14 -52 -4 -89 -12 -98 -21 -8 -9 -19
-13 -24 -9 -5 3 -8 0 -7 -8 2 -7 -5 -12 -14 -12 -10 1 -16 -3 -15 -10 1 -6 -6
-10 -15 -10 -9 1 -14 -4 -12 -10 4 -9 -49 -38 -76 -41 -3 0 -11 -4 -19 -9 -8
-5 -38 -12 -69 -15 l-54 -6 -20 -53 c-11 -29 -24 -50 -29 -47 -5 3 -6 0 -3 -8
2 -7 -4 -34 -15 -59 l-19 -46 -84 -11 c-45 -6 -162 -20 -258 -31 -96 -11 -186
-22 -198 -25 -13 -3 -30 -1 -38 6 -12 10 -20 7 -39 -11 -13 -12 -23 -27 -22
-33 4 -18 -22 -18 -40 0 -13 13 -36 19 -78 21 -45 1 -56 -1 -45 -9 11 -8 5 -9
-27 -6 -24 3 -46 1 -49 -5 -3 -5 -20 -9 -38 -8 -17 1 -33 1 -36 0 -11 -5 -275
-37 -279 -34 -2 2 2 10 9 19 10 12 9 15 -6 16 -11 1 -25 1 -33 0 -8 -2 -10 2
-6 10 6 9 -11 10 -76 3 -46 -5 -108 -9 -137 -9 -28 0 -52 -4 -52 -8 0 -5 -15
-8 -32 -6 -18 1 -40 -1 -48 -4 -8 -3 -55 -10 -105 -16 -95 -10 -140 -27 -171
-63 -15 -18 -16 -20 -1 -9 16 13 16 11 1 -25 -36 -89 -38 -93 -47 -81 -5 7 -6
1 -3 -15 6 -28 -2 -61 -13 -54 -4 3 -8 -3 -9 -12 -3 -25 -8 -44 -20 -73 -14
-35 -17 -70 -8 -97 8 -25 -9 -56 -27 -45 -6 3 -7 1 -3 -6 5 -7 -4 -24 -23 -42
-17 -16 -26 -29 -20 -29 6 0 -2 -17 -18 -37 -16 -21 -40 -55 -52 -75 -12 -21
-25 -37 -29 -35 -4 1 -8 -2 -9 -8 -1 -5 12 -9 28 -8 24 1 29 -2 24 -14 -5 -14
1 -15 42 -8 27 4 57 9 68 10 11 1 27 5 35 8 8 3 47 11 85 17 39 6 84 16 100
20 17 5 55 12 85 15 30 3 64 8 75 11 59 14 95 28 95 36 0 5 11 6 24 2 13 -3
100 9 192 26 93 17 221 40 284 50 93 16 117 23 131 41 11 14 18 18 23 10 4 -6
1 -11 -6 -11 -10 0 -10 -2 1 -9 7 -5 25 -5 40 0 35 11 453 78 522 83 30 3 62
8 72 11 21 9 22 -4 2 -31 -8 -12 -12 -24 -9 -27 3 -3 -4 -27 -15 -52 -25 -57
-27 -77 -5 -68 9 3 19 1 23 -5 10 -17 42 -16 156 3 88 14 420 55 452 55 6 0
17 16 23 35 6 19 15 33 18 31 4 -2 8 6 8 19 1 12 12 45 25 72 l23 51 65 6 c90
8 569 43 606 44 17 0 118 8 225 16 107 8 252 16 321 18 l127 3 -5 32 c-4 20 0
39 8 50 13 15 3 16 -144 9 -126 -5 -158 -4 -155 6 2 7 34 104 71 216 56 163
72 202 87 202 16 0 150 12 278 25 l52 5 0 -42 c0 -24 -4 -49 -8 -56 -5 -8 -51
-16 -122 -22 -63 -6 -117 -14 -121 -18 -4 -4 -10 -17 -14 -29 -6 -20 -3 -22
22 -18 52 8 183 15 183 10 0 -3 -11 -27 -24 -54 l-25 -48 -100 -7 c-95 -7 -99
-8 -106 -33 -3 -14 -5 -26 -3 -27 2 -1 55 1 118 5 63 3 116 5 117 5 2 -1 -6
-19 -17 -39 -25 -46 -25 -47 4 -47 29 0 56 -24 56 -50 0 -18 22 -22 37 -5 4 4
2 5 -4 1 -19 -11 -16 15 7 52 16 27 18 40 11 73 -8 33 -5 47 14 83 13 25 21
47 17 50 -3 4 3 9 14 12 23 6 44 75 44 145 0 32 -4 41 -25 51 -14 6 -25 16
-25 21 0 7 -45 7 -127 2 -71 -4 -155 -9 -188 -10 -33 -2 -67 -6 -75 -8 -8 -3
-102 -13 -209 -22 -107 -9 -202 -20 -212 -26 -10 -5 -20 -5 -23 0 -8 12 50 35
65 25 7 -4 10 -3 6 3 -7 11 283 39 308 29 10 -3 14 -2 9 5 -4 7 3 10 17 9 13
-1 33 -1 44 0 14 2 12 4 -9 9 -16 3 39 6 123 7 85 0 156 5 162 11 12 12 -120
38 -306 59 -160 17 -732 30 -876 20 l-96 -8 -12 -40 c-7 -22 -11 -42 -9 -44 2
-2 54 -8 115 -14 206 -19 425 -58 445 -78 5 -5 -1 -32 -16 -67 -15 -32 -26
-64 -26 -71 0 -8 -4 -14 -9 -14 -5 0 -15 -34 -22 -75 l-13 -75 -34 0 c-29 0
-33 3 -27 18 22 55 87 239 88 252 1 8 -5 15 -13 15 -8 0 -18 4 -22 9 -4 6 -58
5 -139 -2 -98 -9 -135 -9 -140 -1 -5 8 -8 8 -11 -1 -2 -7 -40 -15 -98 -21 -52
-5 -110 -11 -127 -13 -38 -5 -41 2 -13 32 12 13 17 28 13 38 -4 12 -3 15 5 10
8 -5 10 -2 6 9 -4 8 -2 21 4 28 5 6 19 41 30 77 11 36 24 73 27 83 6 13 2 17
-14 17 -25 0 -28 17 -3 22 12 3 9 6 -10 9 -14 3 -32 3 -40 -1z m-54 -62 c-7
-22 -235 -593 -269 -672 l-16 -39 41 6 c24 3 46 9 50 14 4 4 40 94 80 200 84
221 49 194 277 214 79 7 146 10 149 6 4 -4 1 -26 -6 -51 l-12 -44 -96 -7
c-121 -10 -143 -16 -153 -44 l-9 -22 83 6 c45 3 92 8 105 11 28 6 28 0 -3 -51
-26 -46 -44 -54 -120 -56 -78 -2 -107 -11 -116 -38 l-9 -23 87 6 c49 4 103 10
121 13 39 6 39 0 3 -57 l-28 -45 -163 -15 -163 -15 -40 -100 c-22 -55 -41
-102 -43 -104 -1 -1 -60 -9 -131 -17 -70 -7 -183 -21 -251 -30 -68 -9 -125
-14 -127 -12 -2 2 16 50 40 106 23 56 40 102 36 102 -5 0 -83 -11 -175 -25
-92 -14 -169 -25 -171 -25 -6 0 15 55 98 265 l63 160 150 17 c225 26 214 28
194 -43 l-10 -36 -119 -13 c-111 -12 -120 -14 -130 -38 -7 -13 -10 -26 -8 -28
1 -2 48 3 102 11 55 7 101 12 103 11 2 -2 -10 -25 -25 -50 -30 -50 -30 -50
-143 -66 -48 -7 -79 -16 -87 -27 -29 -38 -16 -40 127 -18 52 8 95 13 97 11 2
-1 -11 -24 -28 -51 l-30 -48 38 6 c21 4 47 7 59 7 15 0 27 13 42 48 29 62 151
366 148 369 -1 1 -27 -2 -57 -6 -29 -5 -55 -8 -56 -7 -2 1 16 48 39 103 l41
101 56 11 c70 14 142 47 202 94 52 39 65 44 127 46 41 1 43 0 36 -21z m1086
-198 c0 -6 -20 -33 -45 -59 l-46 -49 -100 -7 c-93 -7 -101 -9 -111 -31 -6 -13
-9 -26 -7 -28 3 -3 51 0 108 5 73 7 108 6 115 -1 15 -15 -50 -209 -79 -236
-20 -19 -40 -22 -166 -28 -79 -4 -164 -9 -188 -13 l-44 -6 21 29 c63 86 57 83
175 90 104 7 109 8 118 32 5 14 8 26 6 29 -2 2 -53 -1 -113 -6 -75 -7 -111 -6
-115 1 -10 16 70 230 91 243 7 4 94 15 194 25 99 10 182 18 184 19 1 0 2 -4 2
-9z m-626 -117 c-42 -111 -84 -227 -84 -235 0 -4 41 -5 92 -1 l92 6 -24 -39
c-13 -21 -28 -44 -34 -51 -10 -11 -274 -39 -294 -32 -4 2 26 95 67 206 l76
202 35 4 c19 2 50 4 67 5 l33 2 -26 -67z m-1589 -83 c-10 -11 -23 -20 -28 -20
-13 0 24 39 37 39 5 1 1 -8 -9 -19z m235 8 c0 -2 -38 -97 -84 -213 l-83 -210
-64 -11 c-35 -6 -65 -10 -67 -8 -2 1 20 59 47 130 28 70 49 130 47 132 -2 2
-41 -52 -87 -119 -118 -170 -114 -167 -182 -175 l-58 -6 5 71 c3 39 8 104 11
144 5 84 7 87 -69 -110 l-47 -122 -50 -10 c-62 -14 -79 -14 -79 -1 0 13 160
423 170 433 4 4 55 14 113 21 80 9 107 10 111 1 2 -6 0 -45 -5 -86 -4 -41 -8
-83 -9 -93 0 -11 32 28 70 87 39 58 76 110 83 114 15 10 228 39 227 31z
m-1041 -62 c-2 -2 -54 -38 -116 -80 -69 -47 -123 -76 -140 -77 -56 -2 -76 -13
-88 -49 -9 -28 -30 -48 -104 -98 -51 -35 -95 -62 -97 -60 -6 7 106 292 121
308 11 10 69 22 188 36 173 21 244 27 236 20z m-7 -53 c-22 -26 -48 -55 -58
-65 -21 -18 -126 -38 -109 -20 16 17 200 139 204 136 2 -2 -15 -25 -37 -51z
m418 25 c0 -19 -149 -400 -164 -421 -10 -13 -56 -26 -172 -47 -88 -16 -171
-32 -186 -36 -24 -5 -28 -2 -28 16 0 31 149 422 169 443 13 13 53 22 157 36
173 23 224 25 224 9z m-490 -198 c0 -35 -100 -284 -123 -306 -17 -17 -69 -31
-240 -64 -120 -23 -220 -40 -222 -38 -5 5 90 144 103 152 4 2 64 14 132 26
129 23 150 34 150 75 l0 22 -130 -22 c-72 -12 -133 -19 -135 -15 -3 4 46 42
108 84 108 73 115 76 202 89 136 21 155 21 155 -3z"/>
<path d="M4115 5441 c-27 -5 -33 -16 -71 -111 -24 -58 -43 -110 -43 -116 -1
-8 16 -8 61 0 l62 11 42 105 c23 58 43 108 43 113 1 8 -51 8 -94 -2z"/>
<path d="M6045 6100 c-3 -5 -1 -10 4 -10 6 0 11 5 11 10 0 6 -2 10 -4 10 -3 0
-8 -4 -11 -10z"/>
<path d="M7348 5933 c6 -2 18 -2 25 0 6 3 1 5 -13 5 -14 0 -19 -2 -12 -5z"/>
<path d="M7468 5878 c7 -7 12 -18 12 -26 0 -8 16 -32 35 -53 46 -51 48 -99 7
-155 -33 -44 -107 -114 -122 -114 -6 0 -10 -11 -10 -25 0 -14 -7 -37 -16 -50
-27 -41 1 -29 83 38 118 95 177 191 159 262 -9 35 -62 93 -107 116 -44 22 -58
24 -41 7z"/>
<path d="M4628 5663 c7 -3 16 -2 19 1 4 3 -2 6 -13 5 -11 0 -14 -3 -6 -6z"/>
<path d="M3995 5650 c3 -5 8 -10 11 -10 2 0 4 5 4 10 0 6 -5 10 -11 10 -5 0
-7 -4 -4 -10z"/>
<path d="M3568 5603 c6 -2 18 -2 25 0 6 3 1 5 -13 5 -14 0 -19 -2 -12 -5z"/>
<path d="M3530 5590 c-9 -6 -10 -10 -3 -10 6 0 15 5 18 10 8 12 4 12 -15 0z"/>
<path d="M3461 5484 c0 -11 3 -14 6 -6 3 7 2 16 -1 19 -3 4 -6 -2 -5 -13z"/>
<path d="M7230 5446 c0 -4 -8 -5 -17 -2 -10 4 -14 4 -10 0 4 -4 1 -12 -7 -18
-7 -6 -16 -23 -20 -38 -5 -21 -2 -30 15 -38 59 -32 156 57 107 98 -15 12 -68
11 -68 -2z m60 -20 c0 -31 -44 -67 -79 -65 l-26 2 28 4 c15 2 27 11 27 19 0
17 -17 19 -22 2 -3 -7 -7 -8 -10 -2 -4 5 2 21 12 34 16 21 21 23 32 12 11 -11
10 -12 -4 -7 -11 4 -18 2 -18 -4 0 -6 5 -11 10 -11 6 0 10 -7 10 -16 0 -14 3
-14 16 -3 9 7 14 22 11 36 -2 13 0 23 4 23 5 0 9 -11 9 -24z"/>
<path d="M7295 5357 c-21 -20 -24 -26 -9 -19 22 11 50 41 43 45 -2 2 -17 -10
-34 -26z"/>
<path d="M7174 5330 c-5 -5 -57 -10 -116 -11 -60 -1 -108 -5 -108 -10 0 -16
-115 -95 -207 -141 -362 -186 -977 -311 -1588 -323 -233 -5 -247 -4 -210 10
125 49 415 106 634 125 69 5 127 13 130 15 6 7 5 7 -150 -5 -129 -10 -365 -44
-516 -74 -40 -7 -73 -12 -73 -10 0 1 18 45 41 96 22 51 43 98 45 104 9 21
-506 -55 -864 -126 -89 -18 -151 -26 -164 -21 -12 4 -41 4 -65 0 -24 -5 -63
-10 -86 -12 -23 -2 -94 -16 -157 -31 -107 -26 -140 -36 -112 -36 7 0 12 -5 12
-10 0 -6 -6 -10 -12 -9 -7 1 -21 -1 -32 -6 -10 -4 -47 -4 -81 1 -41 6 -62 6
-58 0 4 -5 -3 -7 -15 -4 -12 4 -24 3 -27 -2 -2 -4 10 -11 28 -15 l32 -7 -50
-14 -50 -13 45 7 c66 9 91 8 245 -16 204 -31 494 -44 799 -36 143 3 281 8 306
10 25 2 142 11 260 19 259 19 745 70 945 99 79 12 -595 -272 -1018 -429 -86
-32 -155 -60 -153 -62 3 -4 355 107 581 182 154 52 557 191 585 203 14 6 59
23 100 38 41 15 136 51 211 80 122 47 162 57 400 99 306 54 653 123 624 124
-12 1 -129 -8 -260 -19 -326 -27 -314 -26 -309 -18 3 5 10 8 16 8 12 0 399
188 446 217 23 14 29 22 19 26 -8 3 -18 2 -23 -3z m-2376 -367 c-2 -5 -16 -32
-31 -60 l-27 -53 -58 0 c-105 0 -501 56 -518 73 -4 4 172 25 311 37 112 10
327 12 323 3z m-1034 -133 c6 -6 21 -10 35 -10 13 0 21 -3 18 -6 -4 -4 -57 -1
-119 6 -83 10 -106 16 -88 21 32 10 141 2 154 -11z"/>
<path d="M6915 5320 c-3 -5 -1 -10 4 -10 6 0 11 5 11 10 0 6 -2 10 -4 10 -3 0
-8 -4 -11 -10z"/>
<path d="M3313 5244 c-114 -101 -157 -203 -114 -271 12 -18 26 -33 31 -33 6 0
8 5 5 10 -3 6 -2 10 4 10 6 0 9 24 9 58 -2 67 14 103 76 167 23 25 41 47 38
50 -3 2 3 16 12 29 28 44 2 36 -61 -20z"/>
<path d="M6563 5293 c9 -2 23 -2 30 0 6 3 -1 5 -18 5 -16 0 -22 -2 -12 -5z"/>
<path d="M6048 5253 c7 -3 16 -2 19 1 4 3 -2 6 -13 5 -11 0 -14 -3 -6 -6z"/>
<path d="M4618 5083 c6 -2 18 -2 25 0 6 3 1 5 -13 5 -14 0 -19 -2 -12 -5z"/>
<path d="M5085 5079 c-4 -6 -5 -12 -2 -15 2 -3 7 2 10 11 7 17 1 20 -8 4z"/>
<path d="M4358 5033 c7 -3 16 -2 19 1 4 3 -2 6 -13 5 -11 0 -14 -3 -6 -6z"/>
<path d="M5688 5023 c7 -3 16 -2 19 1 4 3 -2 6 -13 5 -11 0 -14 -3 -6 -6z"/>
<path d="M4182 5010 c-18 -4 -36 -11 -39 -14 -10 -10 61 5 72 15 5 5 7 9 5 8
-3 -1 -20 -5 -38 -9z"/>
<path d="M5608 5013 c7 -3 16 -2 19 1 4 3 -2 6 -13 5 -11 0 -14 -3 -6 -6z"/>
<path d="M3305 4840 c-13 -6 -15 -9 -5 -9 8 0 22 4 30 9 18 12 2 12 -25 0z"/>
<path d="M3210 4820 c-8 -5 -10 -10 -5 -10 6 0 17 5 25 10 8 5 11 10 5 10 -5
0 -17 -5 -25 -10z"/>
<path d="M3318 4793 c7 -3 16 -2 19 1 4 3 -2 6 -13 5 -11 0 -14 -3 -6 -6z"/>
</g>
</svg>
